#!OML:ASF H:\charlestonDancing\Project 1\Capture day 1\Session 1\femaleDancer.ASF
:FULLY-SPECIFIED
:DEGREES
190
root 3.18617 17.8077 -1.25974 -16.2805 -95.2145 27.7822
lowerback 21.1153 3.47798 2.85337
upperback 4.46919 4.74528 -1.06454
thorax -6.55652 2.11034 -3.98786
lowerneck 3.63091 -1.70694 -1.54963
upperneck 0.110109 -2.37024 -1.50031
head -0.560457 -1.17613 -0.165947
rclavicle -1.76421e-014 -3.8763e-015
rhumerus -38.6034 1.96134 -83.8457
rradius 50.4613
rwrist 21.1088
rhand -38.5517 -41.6895
rfingers 7.12502
rthumb -11.5714 -71.35
lclavicle -1.76421e-014 -3.8763e-015
lhumerus -29.8443 24.9489 5.65839
lradius 148.9
lwrist 9.59247
lhand -6.15183 21.4542
lfingers 7.12502
lthumb 19.6864 50.4774
rfemur -37.4002 -3.96254 24.1605
rtibia 65.0506
rfoot -12.7429 -0.25307
rtoes -16.8957
lfemur -26.5616 -4.66595 -22.8399
ltibia 39.4857
lfoot -14.6562 -6.03588
ltoes -15.0253
191
root 3.21507 17.8965 -1.26433 -18.2682 -96.2412 30.2435
lowerback 20.3718 3.48816 3.06311
upperback 4.24186 4.81023 -1.113
thorax -6.38508 2.15178 -4.13064
lowerneck 3.27944 -1.32074 -1.32011
upperneck 0.700392 -1.83269 -1.72951
head -0.325811 -0.914905 -0.285668
rclavicle -2.75938e-014 3.72721e-016
rhumerus -38.8677 3.77939 -84.422
rradius 50.3163
rwrist 21.2223
rhand -38.8412 -41.5566
rfingers 7.12502
rthumb -11.8505 -71.2013
lclavicle -2.75938e-014 3.72721e-016
lhumerus -29.8484 24.2127 6.22803
lradius 149.007
lwrist 9.2046
lhand -5.79748 21.3832
lfingers 7.12502
lthumb 20.027 50.3711
rfemur -34.7986 -3.49524 24.9622
rtibia 63.6424
rfoot -11.524 0.999526
rtoes -18.1429
lfemur -26.7366 -4.50762 -21.8669
ltibia 38.7278
lfoot -13.7645 -5.69245
ltoes -15.8528
192
root 3.24514 17.9643 -1.27119 -19.4384 -97.1883 31.9732
lowerback 19.5236 3.4927 3.22689
upperback 3.97725 4.85792 -1.15489
thorax -6.20137 2.18727 -4.22869
lowerneck 2.95968 -0.881996 -1.00002
upperneck 1.23083 -1.2242 -1.97715
head -0.115143 -0.617343 -0.422484
rclavicle 1.66979e-014 -1.03368e-014
rhumerus -38.9981 5.7535 -84.9335
rradius 50.1778
rwrist 21.0703
rhand -38.9405 -41.0644
rfingers 7.12502
rthumb -11.9462 -70.7035
lclavicle 1.66979e-014 -1.03368e-014
lhumerus -29.7591 23.6022 6.70182
lradius 149.034
lwrist 8.71443
lhand -5.5249 21.308
lfingers 7.12502
lthumb 20.289 50.2683
rfemur -32.1045 -3.08503 25.7163
rtibia 61.6279
rfoot -10.1134 1.53808
rtoes -19.1471
lfemur -27.2613 -4.27439 -20.9452
ltibia 38.4934
lfoot -13.1317 -5.54695
ltoes -17.5764
193
root 3.27249 18.0104 -1.28221 -19.334 -98.0338 32.3854
lowerback 18.7533 3.51967 3.2576
upperback 3.65867 4.90596 -1.26049
thorax -6.11935 2.22089 -4.32762
lowerneck 2.75263 -0.479794 -0.677685
upperneck 1.69959 -0.668322 -2.0462
head 0.0613325 -0.344799 -0.502327
rclavicle -4.88016e-014 1.41137e-014
rhumerus -39.1366 7.61345 -85.4382
rradius 49.9629
rwrist 21.048
rhand -38.8642 -40.393
rfingers 7.12502
rthumb -11.8727 -70.0364
lclavicle -4.88016e-014 1.41137e-014
lhumerus -29.4966 23.0812 6.93879
lradius 148.969
lwrist 8.22884
lhand -5.14743 21.2861
lfingers 7.12502
lthumb 20.6518 50.2074
rfemur -29.2566 -2.74429 26.2784
rtibia 59.0443
rfoot -9.39785 2.80816
rtoes -19.4698
lfemur -28.0242 -3.84777 -20.2453
ltibia 38.8206
lfoot -12.8537 -5.66446
ltoes -18.584
194
root 3.30131 18.0146 -1.29422 -20.0721 -98.6292 33.5067
lowerback 18.1071 3.45661 3.43665
upperback 3.36954 4.86362 -1.35486
thorax -6.06527 2.20571 -4.48537
lowerneck 2.59777 -0.131476 -0.369162
upperneck 2.07703 -0.189075 -2.04244
head 0.203477 -0.108572 -0.5558
rclavicle 1.25234e-014 -5.56597e-015
rhumerus -39.2442 9.24406 -85.868
rradius 49.7018
rwrist 21.4013
rhand -38.6984 -39.9136
rfingers 7.12502
rthumb -11.7129 -69.5662
lclavicle 1.25234e-014 -5.56597e-015
lhumerus -29.0579 22.7182 6.96498
lradius 148.757
lwrist 7.76157
lhand -4.81164 21.3069
lfingers 7.12502
lthumb 20.9744 50.1929
rfemur -26.1934 -2.68701 26.8075
rtibia 55.9381
rfoot -8.37527 4.07901
rtoes -20.6832
lfemur -28.9762 -2.92341 -19.7149
ltibia 39.7578
lfoot -12.4049 -6.36014
ltoes -18.3557
195
root 3.34496 17.9956 -1.30963 -21.4514 -98.5647 35.2346
lowerback 17.5261 3.17565 3.5666
upperback 3.1833 4.52206 -1.40305
thorax -5.97173 2.04608 -4.50381
lowerneck 2.25439 0.252955 -0.099325
upperneck 2.34324 0.337574 -2.13937
head 0.345304 0.151921 -0.632801
rclavicle -1.74931e-014 -8.74653e-015
rhumerus -39.0824 10.8404 -86.1212
rradius 49.3487
rwrist 21.8532
rhand -38.571 -39.4195
rfingers 7.12502
rthumb -11.5899 -69.079
lclavicle -1.74931e-014 -8.74653e-015
lhumerus -28.6353 22.724 6.85017
lradius 148.424
lwrist 7.35634
lhand -4.54005 21.3523
lfingers 7.12502
lthumb 21.2353 50.2091
rfemur -23.0754 -3.10396 27.1026
rtibia 52.3052
rfoot -7.86167 5.378
rtoes -22.9615
lfemur -30.3431 -2.04846 -19.5106
ltibia 41.3196
lfoot -11.4144 -7.40255
ltoes -16.7646
196
root 3.40325 17.9547 -1.33461 -23.3384 -97.9606 37.4335
lowerback 17.0441 2.82364 3.58715
upperback 3.07184 4.06377 -1.43386
thorax -5.87253 1.83041 -4.42549
lowerneck 1.77177 0.575209 0.0611875
upperneck 2.50227 0.777459 -2.12854
head 0.47804 0.369708 -0.656551
rclavicle -2.22639e-014 4.05521e-014
rhumerus -38.8128 12.0718 -86.1503
rradius 48.8964
rwrist 22.2256
rhand -38.4995 -38.0883
rfingers 7.12502
rthumb -11.521 -67.7516
lclavicle -2.22639e-014 4.05521e-014
lhumerus -27.9737 23.037 6.68634
lradius 147.922
lwrist 7.06086
lhand -4.05456 21.2898
lfingers 7.12502
lthumb 21.7016 50.0934
rfemur -19.9046 -3.72539 27.1888
rtibia 48.1581
rfoot -6.9633 6.49723
rtoes -23.6495
lfemur -32.1502 -1.44269 -19.5503
ltibia 43.5607
lfoot -10.2497 -8.55969
ltoes -14.0876
197
root 3.47542 17.8827 -1.36674 -28.6957 -96.9716 43.1371
lowerback 16.6306 2.38481 3.8956
upperback 2.98164 3.54764 -1.379
thorax -5.77975 1.58124 -4.41482
lowerneck 1.17286 0.787729 0.193815
upperneck 2.64009 1.07036 -2.12765
head 0.623096 0.513904 -0.67683
rclavicle 1.55052e-014 3.97569e-016
rhumerus -38.5977 12.8356 -85.9466
rradius 48.4021
rwrist 22.4803
rhand -38.4889 -36.387
rfingers 7.12502
rthumb -11.5108 -66.0509
lclavicle 1.55052e-014 3.97569e-016
lhumerus -26.8863 23.6848 6.44714
lradius 147.215
lwrist 6.97992
lhand -3.32537 21.2869
lfingers 7.12502
lthumb 22.4017 50.008
rfemur -16.7753 -4.67661 27.4494
rtibia 43.6429
rfoot -9.70083 7.97801
rtoes -30.6574
lfemur -34.4257 -1.25063 -19.4446
ltibia 46.3437
lfoot -8.50182 -9.76866
ltoes -9.35884
198
root 3.57036 17.7812 -1.40079 -41.4393 -95.5935 56.4016
lowerback 16.2823 1.72655 4.51254
upperback 2.82514 2.80934 -1.18615
thorax -5.8109 1.21471 -4.39838
lowerneck 0.567687 0.952265 0.141914
upperneck 2.67497 1.29792 -2.22266
head 0.737596 0.623682 -0.694853
rclavicle 2.82274e-014 -2.18663e-014
rhumerus -38.4474 13.3332 -85.4806
rradius 47.8557
rwrist 22.6409
rhand -38.39 -35.1114
rfingers 7.12502
rthumb -11.4154 -64.7807
lclavicle 2.82274e-014 -2.18663e-014
lhumerus -25.611 24.5442 6.28599
lradius 146.337
lwrist 7.01334
lhand -2.83828 21.5093
lfingers 7.12502
lthumb 22.8692 50.1733
rfemur -14.5748 -6.30227 27.9423
rtibia 39.115
rfoot -14.8956 7.67579
rtoes -28.9674
lfemur -37.3995 -1.68974 -19.2292
ltibia 49.593
lfoot -5.91561 -10.7663
ltoes -3.89295
199
root 3.64934 17.6874 -1.43393 -55.4002 -94.9668 70.3888
lowerback 16.3673 1.37183 5.08632
upperback 2.78406 2.469 -0.918117
thorax -5.92367 1.03662 -4.37467
lowerneck 0.252602 1.01973 -0.0916075
upperneck 2.38818 1.38969 -2.29825
head 0.70168 0.66848 -0.677619
rclavicle 4.11484e-014 -1.86858e-014
rhumerus -38.5298 13.1962 -84.7209
rradius 47.2616
rwrist 22.9326
rhand -38.0613 -34.0598
rfingers 7.12502
rthumb -11.0984 -63.7464
lclavicle 4.11484e-014 -1.86858e-014
lhumerus -24.156 25.2963 6.67343
lradius 145.359
lwrist 6.76078
lhand -2.60285 21.7337
lfingers 7.12502
lthumb 23.0951 50.3695
rfemur -12.3415 -7.94931 28.51
rtibia 35.0236
rfoot -17.3919 7.48619
rtoes -25.1374
lfemur -39.9398 -1.55697 -19.0305
ltibia 53.1065
lfoot -2.97371 -11.3829
ltoes -2.44076
200
root 3.73448 17.5935 -1.46665 -69.5871 -94.6654 84.4102
lowerback 16.7811 1.20917 5.56356
upperback 2.74286 2.38145 -0.635422
thorax -6.19462 0.975168 -4.3435
lowerneck 0.133707 0.98861 -0.244741
upperneck 1.99874 1.34704 -2.49415
head 0.601974 0.648136 -0.712274
rclavicle -3.27995e-015 -1.2921e-014
rhumerus -38.8534 12.3828 -83.7343
rradius 46.4671
rwrist 23.3156
rhand -37.6925 -33.5921
rfingers 7.12502
rthumb -10.7427 -63.2974
lclavicle -3.27995e-015 -1.2921e-014
lhumerus -22.5555 25.9185 7.55038
lradius 144.329
lwrist 6.30183
lhand -2.24154 21.6969
lfingers 7.12502
lthumb 23.4417 50.2889
rfemur -10.5035 -9.09359 29.1756
rtibia 31.6115
rfoot -19.6573 6.16251
rtoes -22.6812
lfemur -42.4876 -1.3476 -18.9181
ltibia 56.6945
lfoot -0.168917 -11.4358
ltoes -4.04221
